<svg width="48" height="45" viewBox="0 0 48 45" fill="none" xmlns="http://www.w3.org/2000/svg">
<g id="&#240;&#159;&#166;&#134; icon &#34;instagram&#34;">
<path id="Vector" d="M34.073 0H13.951C5.2106 0 0 4.8825 0 13.0725V31.905C0 40.1175 5.2106 45 13.951 45H34.049C42.7893 45 47.9999 40.1175 47.9999 31.9275V13.0725C48.0239 4.8825 42.8133 0 34.073 0ZM24.012 31.23C18.8734 31.23 14.6953 27.315 14.6953 22.5C14.6953 17.685 18.8734 13.77 24.012 13.77C29.1505 13.77 33.3286 17.685 33.3286 22.5C33.3286 27.315 29.1505 31.23 24.012 31.23ZM38.227 10.98C38.107 11.25 37.9389 11.4975 37.7228 11.7225C37.4827 11.925 37.2185 12.0825 36.9304 12.195C36.6423 12.3075 36.3301 12.375 36.0179 12.375C35.3696 12.375 34.7693 12.15 34.3131 11.7225C34.097 11.4975 33.9289 11.25 33.8088 10.98C33.6888 10.71 33.6168 10.4175 33.6168 10.125C33.6168 9.8325 33.6888 9.54 33.8088 9.27C33.9289 8.9775 34.097 8.7525 34.3131 8.5275C34.8654 8.01 35.7058 7.7625 36.4742 7.92C36.6423 7.9425 36.7863 7.9875 36.9304 8.055C37.0745 8.1 37.2185 8.1675 37.3626 8.2575C37.4827 8.325 37.6027 8.4375 37.7228 8.5275C37.9389 8.7525 38.107 8.9775 38.227 9.27C38.3471 9.54 38.4191 9.8325 38.4191 10.125C38.4191 10.4175 38.3471 10.71 38.227 10.98Z" fill="#47593F"/>
</g>
</svg>
