<svg width="49" height="45" viewBox="0 0 49 45" fill="none" xmlns="http://www.w3.org/2000/svg">
<g id="&#240;&#159;&#166;&#134; icon &#34;facebook&#34;">
<path id="Vector" d="M48.0157 31.6529C48.0157 39.7724 42.806 44.6129 34.0671 44.6129H31.2102C29.8897 44.6129 28.8094 43.6091 28.8094 42.3823V29.5114C28.8094 28.9092 29.3376 28.3961 29.9858 28.3961L34.2112 28.3292C34.5473 28.3069 34.8354 28.0838 34.9074 27.7715L35.7477 23.511C35.8197 23.1095 35.4836 22.7303 35.0274 22.7303L29.9138 22.7972C29.2415 22.7972 28.7134 22.3065 28.6894 21.7042L28.5933 16.2391C28.5933 15.8822 28.9054 15.5699 29.3136 15.5699L35.0754 15.4807C35.4836 15.4807 35.7957 15.1907 35.7957 14.8115L35.6996 9.45792C35.6996 9.07871 35.3875 8.78875 34.9794 8.78875L28.4973 8.87799C24.512 8.94491 21.343 11.9786 21.415 15.6814L21.535 21.8157C21.559 22.4403 21.0309 22.931 20.3586 22.9533L17.4777 22.998C17.0696 22.998 16.7575 23.2879 16.7575 23.6672L16.8295 27.9054C16.8295 28.2846 17.1416 28.5746 17.5497 28.5746L20.4307 28.53C21.1029 28.53 21.6311 29.0207 21.6551 29.623L21.8711 42.3377C21.8951 43.5868 20.8148 44.6129 19.4703 44.6129H13.9485C5.2097 44.6129 0 39.7724 0 31.6306V12.9601C0 4.8405 5.2097 0 13.9485 0H34.0671C42.806 0 48.0157 4.8405 48.0157 12.9601V31.6529Z" fill="#f5f5f5"/>
</g>
</svg>
