<?xml version="1.0" encoding="UTF-8" standalone="no"?>
<svg
   version="1.1"
   viewBox="0.00 0.00 511.00 469.00"
   id="svg59"
   sodipodi:docname="logo_certo.svg"
   inkscape:version="1.3 (0e150ed6c4, 2023-07-21)"
   xmlns:inkscape="http://www.inkscape.org/namespaces/inkscape"
   xmlns:sodipodi="http://sodipodi.sourceforge.net/DTD/sodipodi-0.dtd"
   xmlns="http://www.w3.org/2000/svg"
   xmlns:svg="http://www.w3.org/2000/svg">
  <defs
     id="defs59" />
  <sodipodi:namedview
     id="namedview59"
     pagecolor="#ffffff"
     bordercolor="#999999"
     borderopacity="1"
     inkscape:showpageshadow="2"
     inkscape:pageopacity="0"
     inkscape:pagecheckerboard="0"
     inkscape:deskcolor="#d1d1d1"
     showguides="true"
     inkscape:zoom="1"
     inkscape:cx="223.99999"
     inkscape:cy="279.49999"
     inkscape:window-width="1366"
     inkscape:window-height="745"
     inkscape:window-x="-8"
     inkscape:window-y="-8"
     inkscape:window-maximized="1"
     inkscape:current-layer="svg59" />
  <path
     d="m 170.07475,417.80606 h -0.0373 q -1.3795,-0.37284 -2.0879,-0.59654 -0.70839,-0.26099 -1.75234,-0.7084 -1.00666,-0.44741 -1.71506,-1.08123 -0.70839,-0.67111 -1.26765,-1.56593 -1.37951,-2.12518 -1.37951,-4.66048 0,-3.61654 2.53531,-6.15185 2.5353,-2.5353 6.15184,-2.5353 3.20642,0 5.59259,2.0879 2.42345,2.05061 2.94543,5.18246 l -3.61654,0.74568 q -0.26099,-1.82692 -1.67778,-3.05728 -1.3795,-1.26766 -3.2437,-1.26766 -2.0879,0 -3.54197,1.49136 -1.45407,1.45407 -1.45407,3.50469 0,1.45407 0.78296,2.68444 0.55926,0.85753 1.49136,1.30493 0.96938,0.41013 3.20641,1.04395 1.56593,0.44741 2.27432,0.7084 0.74568,0.2237 1.82691,0.70839 1.08124,0.48469 1.78963,1.1558 0.74568,0.67111 1.34222,1.60321 1.45407,2.27432 1.45407,4.99604 0,3.80296 -2.72172,6.4874 -2.68444,2.68444 -6.45012,2.68444 -3.54197,0 -6.15184,-2.38617 -2.60987,-2.38617 -2.98271,-5.85357 l 3.57925,-0.67111 q 0.48469,2.49802 1.93876,3.87753 1.45408,1.34222 3.61654,1.34222 2.27432,0 3.84024,-1.60321 1.60321,-1.60321 1.60321,-3.87753 0,-1.64049 -0.85753,-3.01999 -0.59654,-0.9321 -1.6032,-1.41679 -1.00667,-0.48469 -3.43012,-1.1558 z m 19.20114,-20.20788 -3.31826,-1.67777 q 1.3795,-2.75901 4.47406,-3.43012 2.90815,-0.59654 5.21975,1.1558 1.00666,0.78296 2.23703,0.48469 1.34222,-0.2237 1.93877,-1.49136 l 3.31826,1.67778 q -1.41678,2.83358 -4.51135,3.43012 -0.55926,0.14913 -1.30494,0.14913 -2.16246,0 -3.87752,-1.30493 -1.04395,-0.78296 -2.23703,-0.48469 -1.37951,0.29827 -1.93877,1.49135 z m 20.05874,33.85379 h -4.10123 l -2.83357,-5.77901 h -15.88295 l -2.87086,5.77901 h -4.10123 l 15.02542,-30.94564 z m -21.13997,-9.5074 h 12.56467 l -6.18912,-12.9748 z M 213.2122,405.2041 q 4.69777,-4.69777 11.3343,-4.69777 6.63654,0 11.33431,4.69777 4.69777,4.69777 4.69777,11.3343 0,6.63654 -4.69777,11.33431 -4.69777,4.69777 -11.33431,4.69777 -6.63653,0 -11.3343,-4.69777 -4.69777,-4.69777 -4.69777,-11.33431 0,-6.63653 4.69777,-11.3343 z m 20.02145,2.64716 q -3.61654,-3.65383 -8.68715,-3.65383 -5.07061,0 -8.72443,3.65383 -3.61654,3.61653 -3.61654,8.68714 0,5.07062 3.61654,8.72444 3.65382,3.61654 8.72443,3.61654 5.07061,0 8.68715,-3.61654 3.65382,-3.65382 3.65382,-8.72444 0,-5.07061 -3.65382,-8.68714 z m 36.61282,-6.22642 v 21.06541 q 0,4.06394 -2.90814,6.97209 -2.87086,2.90814 -6.97209,2.90814 -4.02666,0 -6.97209,-2.87086 l 2.60987,-2.64716 q 1.8642,1.78963 4.36222,1.78963 2.5353,0 4.32493,-1.78963 1.82691,-1.82691 1.82691,-4.36221 v -21.06541 z m 8.05332,3.57926 q 4.69777,-4.69777 11.33431,-4.69777 6.63653,0 11.3343,4.69777 4.69778,4.69777 4.69778,11.3343 0,6.63654 -4.69778,11.33431 -4.69777,4.69777 -11.3343,4.69777 -6.63654,0 -11.33431,-4.69777 -4.69777,-4.69777 -4.69777,-11.33431 0,-6.63653 4.69777,-11.3343 z m 20.02146,2.64716 q -3.61654,-3.65383 -8.68715,-3.65383 -5.07061,0 -8.72443,3.65383 -3.61654,3.61653 -3.61654,8.68714 0,5.07062 3.61654,8.72444 3.65382,3.61654 8.72443,3.61654 5.07061,0 8.68715,-3.61654 3.65382,-3.65382 3.65382,-8.72444 0,-5.07061 -3.65382,-8.68714 z m 18.30639,9.9548 h -0.0373 q -1.37951,-0.37284 -2.0879,-0.59654 -0.7084,-0.26099 -1.75235,-0.7084 -1.00666,-0.44741 -1.71506,-1.08123 -0.70839,-0.67111 -1.26765,-1.56593 -1.3795,-2.12518 -1.3795,-4.66048 0,-3.61654 2.5353,-6.15185 2.53531,-2.5353 6.15185,-2.5353 3.20641,0 5.59258,2.0879 2.42345,2.05061 2.94543,5.18246 l -3.61654,0.74568 q -0.26099,-1.82692 -1.67777,-3.05728 -1.37951,-1.26766 -3.2437,-1.26766 -2.0879,0 -3.54197,1.49136 -1.45408,1.45407 -1.45408,3.50469 0,1.45407 0.78297,2.68444 0.55925,0.85753 1.49135,1.30493 0.96938,0.41013 3.20642,1.04395 1.56592,0.44741 2.27431,0.7084 0.74568,0.2237 1.82692,0.70839 1.08123,0.48469 1.78962,1.1558 0.74568,0.67111 1.34222,1.60321 1.45408,2.27432 1.45408,4.99604 0,3.80296 -2.72173,6.4874 -2.68444,2.68444 -6.45011,2.68444 -3.54197,0 -6.15185,-2.38617 -2.60987,-2.38617 -2.98271,-5.85357 l 3.57925,-0.67111 q 0.4847,2.49802 1.93877,3.87753 1.45407,1.34222 3.61654,1.34222 2.27431,0 3.84024,-1.60321 1.60321,-1.60321 1.60321,-3.87753 0,-1.64049 -0.85753,-3.01999 -0.59655,-0.9321 -1.60321,-1.41679 -1.00667,-0.48469 -3.43012,-1.1558 z m 26.0987,-22.7059 -9.05998,2.79629 -1.08124,-3.54197 9.02271,-2.79629 z m 3.05728,10.25307 h -12.41554 v 9.32098 h 10.55135 v 3.72839 h -10.55135 v 9.32098 h 12.49011 v 3.72839 h -16.2185 v -29.82713 h 16.14393 z"
     id="text60"
     style="font-size:37.2839px;font-family:Bambino-Regular;-inkscape-font-specification:'Bambino-Regular, Normal';fill:#86ff59;stroke:#74b15c;stroke-width:0.35"
     inkscape:label="text60"
     transform="scale(1.0049172,0.99510687)"
     aria-label="SÃO JOSÉ"
     sodipodi:insensitive="true" />
  <g
     id="g60"
     inkscape:label="Cooperativa"
     inkscape:groupmode="layer"
     sodipodi:insensitive="true">
    <path
       stroke="#a3ac9f"
       vector-effect="non-scaling-stroke"
       d="m 333.37,359.75 a 0.31,0.31 0 0 1 0.29,0.19 l 4.78,11.71 a 0.31,0.31 0 0 0 0.29,0.19 h 6.55 a 0.31,0.31 0 0 0 0.28,-0.43 l -19.6,-45.53 a 0.31,0.31 0 0 0 -0.57,0 l -19.46,45.44 a 0.31,0.31 0 0 0 0.28,0.43 h 6.45 a 0.31,0.31 0 0 0 0.29,-0.19 l 4.79,-11.62 a 0.31,0.31 0 0 1 0.29,-0.19 h 15.34"
       id="path5"
       style="fill:none;stroke-width:2;stroke-linecap:butt" />
    <path
       stroke="#a3ac9f"
       vector-effect="non-scaling-stroke"
       d="m 458.7,359.75 a 0.33,0.33 0 0 1 0.31,0.2 l 4.95,11.75 a 0.33,0.33 0 0 0 0.32,0.2 l 6.39,-0.2 a 0.33,0.33 0 0 0 0.29,-0.46 l -19.51,-45.33 a 0.33,0.33 0 0 0 -0.6,0 l -19.5,45.38 a 0.33,0.33 0 0 0 0.3,0.46 h 6.56 a 0.33,0.33 0 0 0 0.3,-0.21 l 4.7,-11.58 a 0.33,0.33 0 0 1 0.3,-0.21 h 15.19"
       id="path6"
       style="fill:none;stroke-width:2;stroke-linecap:butt" />
    <path
       stroke="#a3ac9f"
       vector-effect="non-scaling-stroke"
       d="m 58.07,338.43 c -8.34,14.11 1.33,33.83 18.7,33.86 q 7.62,0.01 14.39,-3.56 0.51,-0.27 0.25,-0.78 l -2.65,-5.3 q -0.28,-0.54 -0.85,-0.32 -4.11,1.58 -5.23,1.86 c -13.04,3.21 -25.39,-9.66 -18.37,-22.52 4.27,-7.82 14.03,-9.54 22.16,-6.74 q 0.62,0.21 0.93,-0.37 l 2.36,-4.52 q 0.33,-0.62 -0.3,-0.91 c -12,-5.58 -24.77,-1.91 -31.39,9.3"
       id="path7"
       style="fill:none;stroke-width:2;stroke-linecap:butt" />
    <path
       stroke="#a3ac9f"
       vector-effect="non-scaling-stroke"
       d="m 189.41,349.45 a 22.74,22.74 0 0 0 -22.74,-22.74 22.74,22.74 0 0 0 -22.74,22.74 22.74,22.74 0 0 0 22.74,22.74 22.74,22.74 0 0 0 22.74,-22.74"
       id="path8"
       style="fill:none;stroke-width:2;stroke-linecap:butt" />
    <path
       stroke="#a3ac9f"
       vector-effect="non-scaling-stroke"
       d="m 138.95,349.45 a 22.74,22.74 0 0 0 -22.74,-22.74 22.74,22.74 0 0 0 -22.74,22.74 22.74,22.74 0 0 0 22.74,22.74 22.74,22.74 0 0 0 22.74,-22.74"
       id="path9"
       style="fill:none;stroke-width:2;stroke-linecap:butt" />
    <path
       stroke="#a3ac9f"
       vector-effect="non-scaling-stroke"
       d="m 240.5,353.03 a 0.46,0.46 0 0 1 0.46,-0.46 l 18.83,-0.1 a 0.46,0.46 0 0 0 0.46,-0.46 v -5.55 A 0.46,0.46 0 0 0 259.79,346 h -18.83 a 0.46,0.46 0 0 1 -0.46,-0.46 v -11.29 a 0.46,0.46 0 0 1 0.46,-0.46 l 21.33,-0.13 a 0.46,0.46 0 0 0 0.46,-0.46 v -5.73 a 0.46,0.46 0 0 0 -0.46,-0.46 l -28.56,-0.03 a 0.46,0.46 0 0 0 -0.46,0.46 l -0.03,43.85 a 0.46,0.46 0 0 0 0.46,0.46 h 29.63 a 0.46,0.46 0 0 0 0.46,-0.47 l -0.14,-6.08 a 0.46,0.46 0 0 0 -0.46,-0.45 h -22.23 a 0.46,0.46 0 0 1 -0.46,-0.46 v -11.26"
       id="path10"
       style="fill:none;stroke-width:2;stroke-linecap:butt" />
    <path
       stroke="#a3ac9f"
       vector-effect="non-scaling-stroke"
       d="m 362.47,334.44 a 0.44,0.44 0 0 1 0.44,-0.44 h 10.4 a 0.44,0.44 0 0 0 0.44,-0.44 v -6.11 a 0.44,0.44 0 0 0 -0.44,-0.44 l -28.37,-0.04 a 0.44,0.44 0 0 0 -0.44,0.44 v 6.12 a 0.44,0.44 0 0 0 0.44,0.44 l 10.12,0.05 a 0.44,0.44 0 0 1 0.44,0.44 v 36.85 a 0.44,0.44 0 0 0 0.44,0.44 h 6.29 a 0.44,0.44 0 0 0 0.44,-0.44 l -0.2,-36.87"
       id="path11"
       style="fill:none;stroke-width:2;stroke-linecap:butt" />
    <path
       stroke="#a3ac9f"
       vector-effect="non-scaling-stroke"
       d="m 389.3288,327.0562 a 0.27,0.27 0 0 0 -0.2696,-0.2705 l -6.5,-0.0113 a 0.27,0.27 0 0 0 -0.2704,0.2695 l -0.0776,44.4199 a 0.27,0.27 0 0 0 0.2696,0.2705 l 6.5,0.0113 a 0.27,0.27 0 0 0 0.2704,-0.2695 l 0.0776,-44.4199"
       id="path12"
       style="fill:none;stroke-width:2;stroke-linecap:butt" />
    <path
       stroke="#a3ac9f"
       vector-effect="non-scaling-stroke"
       d="m 415.07,357.02 a 0.36,0.35 45.4 0 1 -0.66,-0.01 q -5.94,-14.25 -11.83,-28.39 c -1.17,-2.8 -4.52,-1.83 -6.83,-1.57 q -0.5,0.05 -0.37,0.53 0.65,2.49 0.98,3.26 9.13,20.96 17.89,41.76 a 0.5,0.51 45.1 0 0 0.93,0 l 19.37,-45.08 Q 434.77,327 434.21,327 h -5.17 a 2.09,2.1 11.4 0 0 -1.93,1.29 l -12.04,28.73"
       id="path13"
       style="display:inline;fill:none;stroke-width:2;stroke-linecap:butt" />
    <path
       stroke="#a3ac9f"
       vector-effect="non-scaling-stroke"
       d="m 205.22,356.26 c 9.99,0.2 19.8,-1.07 20.76,-13.27 1.34,-16.81 -15.53,-16.64 -28.12,-15.8 q -0.32,0.02 -0.32,0.34 l -0.19,43.77 q 0,0.45 0.45,0.45 h 6.2 q 0.5,0 0.5,-0.5 v -14.28 a 0.71,0.71 0 0 1 0.72,-0.71"
       id="path14"
       style="fill:none;stroke-width:2;stroke-linecap:butt" />
    <path
       stroke="#a3ac9f"
       vector-effect="non-scaling-stroke"
       d="m 279.1,356.19 6.24,-0.18 a 1.04,1.06 72.9 0 1 0.92,0.48 l 9.42,14.81 q 0.29,0.45 0.81,0.45 h 7.23 a 0.56,0.56 0 0 0 0.47,-0.86 l -10.18,-15.94 q -0.35,-0.55 0.16,-0.94 7.02,-5.5 6.24,-14.21 c -1.26,-14.01 -18.31,-13.7 -28.43,-12.57 q -0.48,0.05 -0.48,0.53 v 43.49 q 0,0.5 0.5,0.5 h 5.89 q 0.64,0 0.64,-0.64 l -0.05,-14.28 q 0,-0.62 0.62,-0.64"
       id="path15"
       style="fill:none;stroke-width:2;stroke-linecap:butt" />
    <path
       stroke="#a3ac9f"
       vector-effect="non-scaling-stroke"
       d="m 320.76,353.29 a 0.34,0.34 0 0 0 0.31,0.47 l 9.25,-0.02 a 0.34,0.34 0 0 0 0.32,-0.47 l -4.65,-11.43 a 0.34,0.34 0 0 0 -0.63,0 l -4.6,11.45"
       id="path24"
       style="fill:none;stroke-width:2;stroke-linecap:butt" />
    <path
       stroke="#a3ac9f"
       vector-effect="non-scaling-stroke"
       d="m 446.11,353.24 a 0.33,0.33 0 0 0 0.3,0.46 l 9.37,0.1 a 0.33,0.33 0 0 0 0.31,-0.46 l -4.56,-11.47 a 0.33,0.33 0 0 0 -0.61,0 l -4.81,11.37"
       id="path25"
       style="fill:none;stroke-width:2;stroke-linecap:butt" />
    <path
       stroke="#a3ac9f"
       vector-effect="non-scaling-stroke"
       d="m 168.2779,365.1048 a 15.76,15.52 84.4 0 0 13.908,-17.1993 15.76,15.52 84.4 0 0 -16.9838,-14.1703 15.76,15.52 84.4 0 0 -13.908,17.1993 15.76,15.52 84.4 0 0 16.9838,14.1703"
       id="path26"
       style="fill:none;stroke-width:2;stroke-linecap:butt" />
    <path
       stroke="#a3ac9f"
       vector-effect="non-scaling-stroke"
       d="m 115.5887,365.1373 a 15.51,15.73 2.3 0 0 16.1288,-15.0949 15.51,15.73 2.3 0 0 -14.8662,-16.3397 15.51,15.73 2.3 0 0 -16.1288,15.0949 15.51,15.73 2.3 0 0 14.8662,16.3397"
       id="path27"
       style="fill:none;stroke-width:2;stroke-linecap:butt" />
    <path
       stroke="#a3ac9f"
       vector-effect="non-scaling-stroke"
       d="m 204.55,335.11 -0.04,13.24 a 1.13,1.13 0 0 0 1.12,1.13 l 5.46,0.02 a 7.61,7.66 0.2 0 0 7.64,-7.64 v -0.18 A 7.61,7.66 0.2 0 0 211.15,334 l -5.46,-0.02 a 1.13,1.13 0 0 0 -1.14,1.13"
       id="path28"
       style="fill:none;stroke-width:2;stroke-linecap:butt" />
    <path
       stroke="#a3ac9f"
       vector-effect="non-scaling-stroke"
       d="m 278.75,335.26 -0.02,12.88 a 1.32,1.32 0 0 0 1.32,1.32 l 5.2,0.01 a 7.92,7.67 0.1 0 0 7.93,-7.66 v -0.18 a 7.92,7.67 0.1 0 0 -7.91,-7.68 l -5.2,-0.01 a 1.32,1.32 0 0 0 -1.32,1.32"
       id="path29"
       style="fill:none;stroke-width:2;stroke-linecap:butt" />
    <path
       fill="#ffffff"
       d="m 333.37,359.75 h -15.34 a 0.31,0.31 0 0 0 -0.29,0.19 l -4.79,11.62 a 0.31,0.31 0 0 1 -0.29,0.19 h -6.45 a 0.31,0.31 0 0 1 -0.28,-0.43 l 19.46,-45.44 a 0.31,0.31 0 0 1 0.57,0 l 19.6,45.53 a 0.31,0.31 0 0 1 -0.28,0.43 h -6.55 a 0.31,0.31 0 0 1 -0.29,-0.19 l -4.78,-11.71 a 0.31,0.31 0 0 0 -0.29,-0.19 z m -12.61,-6.46 a 0.34,0.34 0 0 0 0.31,0.47 l 9.25,-0.02 a 0.34,0.34 0 0 0 0.32,-0.47 l -4.65,-11.43 a 0.34,0.34 0 0 0 -0.63,0 z"
       id="path38" />
    <path
       fill="#ffffff"
       d="m 458.7,359.75 h -15.19 a 0.33,0.33 0 0 0 -0.3,0.21 l -4.7,11.58 a 0.33,0.33 0 0 1 -0.3,0.21 h -6.56 a 0.33,0.33 0 0 1 -0.3,-0.46 l 19.5,-45.38 a 0.33,0.33 0 0 1 0.6,0 l 19.51,45.33 a 0.33,0.33 0 0 1 -0.29,0.46 l -6.39,0.2 a 0.33,0.33 0 0 1 -0.32,-0.2 l -4.95,-11.75 a 0.33,0.33 0 0 0 -0.31,-0.2 z m -12.59,-6.51 a 0.33,0.33 0 0 0 0.3,0.46 l 9.37,0.1 a 0.33,0.33 0 0 0 0.31,-0.46 l -4.56,-11.47 a 0.33,0.33 0 0 0 -0.61,0 z"
       id="path39" />
    <path
       fill="#ffffff"
       d="m 76.77,372.29 c -17.37,-0.03 -27.04,-19.75 -18.7,-33.86 6.62,-11.21 19.39,-14.88 31.39,-9.3 q 0.63,0.29 0.3,0.91 l -2.36,4.52 q -0.31,0.58 -0.93,0.37 c -8.13,-2.8 -17.89,-1.08 -22.16,6.74 -7.02,12.86 5.33,25.73 18.37,22.52 q 1.12,-0.28 5.23,-1.86 0.57,-0.22 0.85,0.32 l 2.65,5.3 q 0.26,0.51 -0.25,0.78 -6.77,3.57 -14.39,3.56 z"
       id="path40" />
    <path
       fill="#ffffff"
       d="m 189.41,349.45 a 22.74,22.74 0 0 1 -22.74,22.74 22.74,22.74 0 0 1 -22.74,-22.74 22.74,22.74 0 0 1 22.74,-22.74 22.74,22.74 0 0 1 22.74,22.74 z m -21.1321,15.6548 a 15.76,15.52 84.4 0 0 13.908,-17.1993 15.76,15.52 84.4 0 0 -16.9838,-14.1703 15.76,15.52 84.4 0 0 -13.908,17.1993 15.76,15.52 84.4 0 0 16.9838,14.1703 z"
       id="path41" />
    <path
       fill="#ffffff"
       d="m 138.95,349.45 a 22.74,22.74 0 0 1 -22.74,22.74 22.74,22.74 0 0 1 -22.74,-22.74 22.74,22.74 0 0 1 22.74,-22.74 22.74,22.74 0 0 1 22.74,22.74 z m -23.3613,15.6873 a 15.51,15.73 2.3 0 0 16.1288,-15.0949 15.51,15.73 2.3 0 0 -14.8662,-16.3397 15.51,15.73 2.3 0 0 -16.1288,15.0949 15.51,15.73 2.3 0 0 14.8662,16.3397 z"
       id="path42" />
    <path
       fill="#ffffff"
       d="m 240.5,353.03 v 11.26 a 0.46,0.46 0 0 0 0.46,0.46 h 22.23 a 0.46,0.46 0 0 1 0.46,0.45 l 0.14,6.08 a 0.46,0.46 0 0 1 -0.46,0.47 H 233.7 a 0.46,0.46 0 0 1 -0.46,-0.46 l 0.03,-43.85 a 0.46,0.46 0 0 1 0.46,-0.46 l 28.56,0.03 a 0.46,0.46 0 0 1 0.46,0.46 v 5.73 a 0.46,0.46 0 0 1 -0.46,0.46 l -21.33,0.13 a 0.46,0.46 0 0 0 -0.46,0.46 v 11.29 a 0.46,0.46 0 0 0 0.46,0.46 h 18.83 a 0.46,0.46 0 0 1 0.46,0.46 v 5.55 a 0.46,0.46 0 0 1 -0.46,0.46 l -18.83,0.1 a 0.46,0.46 0 0 0 -0.46,0.46 z"
       id="path43" />
    <path
       fill="#ffffff"
       d="m 362.47,334.44 0.2,36.87 a 0.44,0.44 0 0 1 -0.44,0.44 h -6.29 a 0.44,0.44 0 0 1 -0.44,-0.44 v -36.85 a 0.44,0.44 0 0 0 -0.44,-0.44 l -10.12,-0.05 a 0.44,0.44 0 0 1 -0.44,-0.44 v -6.12 a 0.44,0.44 0 0 1 0.44,-0.44 l 28.37,0.04 a 0.44,0.44 0 0 1 0.44,0.44 v 6.11 a 0.44,0.44 0 0 1 -0.44,0.44 h -10.4 a 0.44,0.44 0 0 0 -0.44,0.44 z"
       id="path44" />
    <rect
       fill="#ffffff"
       x="382.85898"
       y="326.10617"
       transform="rotate(0.1)"
       width="7.04"
       height="44.959999"
       rx="0.27000001"
       id="rect44"
       style="display:inline" />
    <path
       fill="#ffffff"
       d="m 415.07,357.02 12.04,-28.73 a 2.09,2.1 11.4 0 1 1.93,-1.29 h 5.17 q 0.56,0 0.34,0.52 l -19.37,45.08 a 0.5,0.51 45.1 0 1 -0.93,0 q -8.76,-20.8 -17.89,-41.76 -0.33,-0.77 -0.98,-3.26 -0.13,-0.48 0.37,-0.53 c 2.31,-0.26 5.66,-1.23 6.83,1.57 q 5.89,14.14 11.83,28.39 a 0.36,0.35 45.4 0 0 0.66,0.01 z"
       id="path45"
       style="display:inline" />
    <path
       fill="#ffffff"
       d="m 204.5,356.97 v 14.28 q 0,0.5 -0.5,0.5 h -6.2 q -0.45,0 -0.45,-0.45 l 0.19,-43.77 q 0,-0.32 0.32,-0.34 c 12.59,-0.84 29.46,-1.01 28.12,15.8 -0.96,12.2 -10.77,13.47 -20.76,13.27 a 0.71,0.71 0 0 0 -0.72,0.71 z m 0.05,-21.86 -0.04,13.24 a 1.13,1.13 0 0 0 1.12,1.13 l 5.46,0.02 a 7.61,7.66 0.2 0 0 7.64,-7.64 v -0.18 A 7.61,7.66 0.2 0 0 211.15,334 l -5.46,-0.02 a 1.13,1.13 0 0 0 -1.14,1.13 z"
       id="path46"
       style="display:inline" />
    <path
       fill="#ffffff"
       d="m 278.48,356.83 0.05,14.28 q 0,0.64 -0.64,0.64 H 272 q -0.5,0 -0.5,-0.5 v -43.49 q 0,-0.48 0.48,-0.53 c 10.12,-1.13 27.17,-1.44 28.43,12.57 q 0.78,8.71 -6.24,14.21 -0.51,0.39 -0.16,0.94 l 10.18,15.94 a 0.56,0.56 0 0 1 -0.47,0.86 h -7.23 q -0.52,0 -0.81,-0.45 l -9.42,-14.81 a 1.04,1.06 72.9 0 0 -0.92,-0.48 l -6.24,0.18 q -0.62,0.02 -0.62,0.64 z m 0.27,-21.57 -0.02,12.88 a 1.32,1.32 0 0 0 1.32,1.32 l 5.2,0.01 a 7.92,7.67 0.1 0 0 7.93,-7.66 v -0.18 a 7.92,7.67 0.1 0 0 -7.91,-7.68 l -5.2,-0.01 a 1.32,1.32 0 0 0 -1.32,1.32 z"
       id="path47"
       style="display:inline" />
  </g>
  <g
     id="g61"
     inkscape:label="Logo"
     inkscape:groupmode="layer"
     sodipodi:insensitive="true">
    <path
       stroke="#67ac4c"
       vector-effect="non-scaling-stroke"
       d="m 210.38,117.8 c 5.67,15.27 15.59,28.05 28.09,38.41 a 0.43,0.43 0 0 0 0.7,-0.32 q 0.54,-20.22 4.09,-38.68 c 3.57,-18.57 13.47,-44.79 33.19,-52 20.23,-7.39 37.27,10.09 44.74,26.61 q 7.43,16.41 9.9,35.51 a 0.71,0.71 0 0 0 0.69,0.62 l 2.8,0.06 q 0.66,0.01 0.66,-0.66 l 0.02,-78.56 a 0.53,0.54 0 0 0 -0.53,-0.54 h -2.99 a 0.9,0.9 0 0 0 -0.9,0.97 c 0.43,6.15 -3.15,19.29 -11.93,14.4 -8.04,-4.49 -17.01,-10.04 -25.04,-12.58 -42.86,-13.56 -72.61,29.47 -83.4,64.46 q -0.16,0.53 -0.24,1.16 -0.07,0.55 0.15,1.14"
       id="path1"
       style="display:inline;fill:none;stroke-width:2;stroke-linecap:butt" />
    <path
       stroke="#67ac4c"
       vector-effect="non-scaling-stroke"
       d="m 315.77,247.38 c -4.58,-6.43 -9.37,-12.75 -16.08,-17.08 -15.07,-9.73 -33.13,-13.82 -50.48,-18.91 -20.52,-6.01 -43.36,-18.93 -50.14,-40.76 -3.27,-10.52 -2.98,-22.93 -2,-34.5 a 0.2,0.2 0 0 0 -0.38,-0.09 c -11.5,28.09 -5.01,60.62 19.01,80.02 18.15,14.66 36.76,18.43 62.28,23.98 13.09,2.85 25.78,7.46 34.64,18.09 6.1,7.32 10.08,15.81 13.76,24.27 a 0.19,0.19 0 0 0 0.36,-0.07 c 1.01,-32.39 -7.04,-61.67 -33.03,-82.52 -22.21,-17.82 -48.78,-30.31 -68.03,-51.27 q -32.9,-35.82 -16.93,-82.56 a 0.43203009,0.43203009 0 0 0 -0.79,-0.35 c -30.31,53.96 4.34,106.16 50.98,133.45 22.04,12.9 46.52,23.54 57.13,48.13 a 0.1724094,0.1724094 0 0 1 -0.3,0.17"
       id="path2"
       style="fill:none;stroke-width:2;stroke-linecap:butt" />
    <path
       stroke="#67ac4c"
       vector-effect="non-scaling-stroke"
       d="m 206.24,211.97 q -0.05,-0.22 -0.23,-0.39 -0.39,-0.35 -0.29,0.17 c 5.98,32.23 23.05,67.63 58.04,76.4 19.29,4.83 39.71,-0.36 53.04,-15.33 q 0.85,-0.96 -0.01,-2.62 -1.8,-3.46 -4.17,-6.64 -0.72,-0.97 -1.63,-0.19 c -27.66,23.71 -56.35,4.83 -63.29,-25.89 a 2.53,2.54 1.8 0 0 -1.75,-1.87 q -22.72,-6.73 -39.52,-23.31 -0.14,-0.14 -0.19,-0.33"
       id="path3"
       style="fill:none;stroke-width:2;stroke-linecap:butt" />
    <path
       stroke="#67ac4c"
       vector-effect="non-scaling-stroke"
       d="m 329.46,256.62 c 2.08,-3.04 3.55,-5.21 3.55,-9.11 Q 333,240.22 333,233.07 a 0.32,0.32 0 0 0 -0.59,-0.16 l -6.07,10.38 a 1.04,1.04 0 0 0 -0.11,0.72 l 2.57,12.48 q 0.18,0.84 0.66,0.13"
       id="path4"
       style="fill:none;stroke-width:2;stroke-linecap:butt" />
    <path
       fill="#86ff59"
       d="m 238.47,156.21 c -12.5,-10.36 -22.42,-23.14 -28.09,-38.41 q -0.22,-0.59 -0.15,-1.14 0.08,-0.63 0.24,-1.16 c 10.79,-34.99 40.54,-78.02 83.4,-64.46 8.03,2.54 17,8.09 25.04,12.58 8.78,4.89 12.36,-8.25 11.93,-14.4 a 0.9,0.9 0 0 1 0.9,-0.97 h 2.99 a 0.53,0.54 0 0 1 0.53,0.54 l -0.02,78.56 q 0,0.67 -0.66,0.66 l -2.8,-0.06 a 0.71,0.71 0 0 1 -0.69,-0.62 q -2.47,-19.1 -9.9,-35.51 c -7.47,-16.52 -24.51,-34 -44.74,-26.61 -19.72,7.21 -29.62,33.43 -33.19,52 q -3.55,18.46 -4.09,38.68 a 0.43,0.43 0 0 1 -0.7,0.32 z"
       id="path34"
       style="stroke-width:2;stroke-linecap:butt" />
    <path
       fill="#86ff59"
       d="M 316.07,247.21 C 305.46,222.62 280.98,211.98 258.94,199.08 212.3,171.79 177.65,119.59 207.96,65.63 a 0.43203009,0.43203009 0 0 1 0.79,0.35 q -15.97,46.74 16.93,82.56 c 19.25,20.96 45.82,33.45 68.03,51.27 25.99,20.85 34.04,50.13 33.03,82.52 a 0.19,0.19 0 0 1 -0.36,0.07 c -3.68,-8.46 -7.66,-16.95 -13.76,-24.27 -8.86,-10.63 -21.55,-15.24 -34.64,-18.09 -25.52,-5.55 -44.13,-9.32 -62.28,-23.98 -24.02,-19.4 -30.51,-51.93 -19.01,-80.02 a 0.2,0.2 0 0 1 0.38,0.09 c -0.98,11.57 -1.27,23.98 2,34.5 6.78,21.83 29.62,34.75 50.14,40.76 17.35,5.09 35.41,9.18 50.48,18.91 6.71,4.33 11.5,10.65 16.08,17.08 a 0.1724094,0.1724094 0 0 0 0.3,-0.17 z"
       id="path35"
       style="stroke-width:2;stroke-linecap:butt" />
    <path
       fill="#86ff59"
       d="m 206.43,212.3 q 16.8,16.58 39.52,23.31 a 2.53,2.54 1.8 0 1 1.75,1.87 c 6.94,30.72 35.63,49.6 63.29,25.89 q 0.91,-0.78 1.63,0.19 2.37,3.18 4.17,6.64 0.86,1.66 0.01,2.62 c -13.33,14.97 -33.75,20.16 -53.04,15.33 -34.99,-8.77 -52.06,-44.17 -58.04,-76.4 q -0.1,-0.52 0.29,-0.17 0.18,0.17 0.23,0.39 0.05,0.19 0.19,0.33 z"
       id="path36"
       style="stroke-width:2;stroke-linecap:butt" />
    <path
       fill="#86ff59"
       d="m 329.46,256.62 q -0.48,0.71 -0.66,-0.13 l -2.57,-12.48 a 1.04,1.04 0 0 1 0.11,-0.72 l 6.07,-10.38 a 0.32,0.32 0 0 1 0.59,0.16 q 0,7.15 0.01,14.44 c 0,3.9 -1.47,6.07 -3.55,9.11 z"
       id="path37"
       style="stroke-width:2;stroke-linecap:butt" />
  </g>
</svg>
