<svg version="1.2" xmlns="http://www.w3.org/2000/svg" viewBox="0 0 511 469" width="511" height="469">
	<title>logo-svg</title>
	<style>
		.s0 { paint-order:stroke fill markers;stroke: #67ac4c;stroke-width: 2;stroke-linejoin: round;;fill: #86ff59 } 
		.s1 { paint-order:stroke fill markers;stroke: #67ac4c;stroke-width: 4;stroke-linejoin: round;;fill: #ffffff } 
		.s2 { fill: none;stroke: #67ac4c;stroke-width: 2 } 
		.s3 { fill: #86ff59 } 
	</style>
	<path id="tspan1" class="s0" aria-label="SÃO JOSÉ
"  d="m165.2 388.9v6.8q-2.6-1.2-5.2-1.8-2.5-0.6-4.7-0.6-3 0-4.4 0.9-1.4 0.8-1.4 2.5 0 1.3 0.9 2 1 0.7 3.5 1.2l3.5 0.7q5.4 1.1 7.6 3.3 2.3 2.2 2.3 6.2 0 5.3-3.2 7.9-3.1 2.6-9.6 2.6-3 0-6.1-0.6-3.1-0.5-6.1-1.7v-7q3 1.7 5.9 2.5 2.9 0.8 5.5 0.8 2.8 0 4.2-0.9 1.4-0.9 1.4-2.6 0-1.5-1-2.3-0.9-0.8-3.8-1.4l-3.2-0.7q-4.9-1.1-7.1-3.3-2.2-2.3-2.2-6.1 0-4.8 3.1-7.4 3.1-2.6 8.9-2.6 2.6 0 5.4 0.5 2.8 0.3 5.8 1.1zm30.9 31.1l-2.1-5.8h-12.9l-2 5.8h-8.4l11.9-32.1h9.9l11.9 32.1zm-8.5-24.6l-4.4 12.8h8.8zm0-11.7l-1.2-0.8q-0.1 0-0.2-0.1-1-0.6-1.6-0.6-0.7 0-1.1 0.7-0.4 0.6-0.4 1.7v0.1h-3q0-0.1 0-0.3 0-0.2 0-0.3 0-2.3 1.1-3.7 1.2-1.4 3.1-1.4 0.8 0 1.6 0.3 0.8 0.2 1.6 0.7l1.3 0.9q0.4 0.3 0.8 0.5 0.5 0.1 0.8 0.1 0.8 0 1.2-0.6 0.4-0.7 0.4-1.9h3q0 0.1 0 0.3 0 0.2 0 0.4 0 2.2-1.2 3.6-1.1 1.4-3 1.4-0.8 0-1.6-0.2-0.7-0.3-1.6-0.8zm35.7 9.6q-3.8 0-5.9 2.8-2.1 2.8-2.1 7.9 0 5 2.1 7.8 2.1 2.8 5.9 2.8 3.8 0 5.9-2.8 2-2.8 2-7.8 0-5.1-2-7.9-2.1-2.8-5.9-2.8zm0-6q7.7 0 12.1 4.4 4.4 4.5 4.4 12.3 0 7.7-4.4 12.2-4.4 4.4-12.1 4.4-7.7 0-12.1-4.4-4.4-4.5-4.4-12.2 0-7.8 4.4-12.3 4.4-4.4 12.1-4.4zm38 29.5v-28.9h8.3v28.9q0 6-3.3 9-3.2 3-9.8 3h-1.7v-6.3h1.3q2.6 0 3.9-1.4 1.3-1.5 1.3-4.3zm31.1-23.5q-3.8 0-5.9 2.8-2.1 2.8-2.1 7.9 0 5 2.1 7.8 2.1 2.8 5.9 2.8 3.8 0 5.8-2.8 2.1-2.8 2.1-7.8 0-5.1-2.1-7.9-2-2.8-5.8-2.8zm0-6q7.7 0 12.1 4.4 4.4 4.5 4.4 12.3 0 7.7-4.4 12.2-4.4 4.4-12.1 4.4-7.7 0-12.2-4.4-4.3-4.5-4.3-12.2 0-7.8 4.3-12.3 4.5-4.4 12.2-4.4zm45 1.6v6.8q-2.6-1.2-5.1-1.8-2.5-0.6-4.8-0.6-2.9 0-4.3 0.8-1.5 0.8-1.5 2.6 0 1.2 1 2 0.9 0.7 3.5 1.2l3.5 0.7q5.3 1.1 7.6 3.3 2.2 2.2 2.2 6.2 0 5.3-3.1 7.9-3.2 2.6-9.6 2.6-3.1 0-6.1-0.6-3.1-0.6-6.2-1.7v-7q3.1 1.6 5.9 2.5 2.9 0.8 5.6 0.8 2.7 0 4.1-0.9 1.5-0.9 1.5-2.6 0-1.5-1-2.3-1-0.8-3.9-1.5l-3.2-0.7q-4.8-1-7.1-3.3-2.2-2.2-2.2-6 0-4.8 3.1-7.4 3.1-2.6 8.9-2.6 2.7 0 5.5 0.4 2.8 0.4 5.7 1.2zm9.4 31.1v-32.1h22.3v6.2h-14v6h13.2v6.3h-13.2v7.3h14.5v6.3zm7.7-35.2l4.2-5.6h6.1l-6.1 5.6z"/>
	<path id="tspan3" class="s1" aria-label="COOPERATIVA"  d="m64.9 354.9v8.8q-3 1.5-6.3 2.3-3.3 0.8-6.8 0.8-10.6 0-16.7-5.9-6.2-5.9-6.2-16 0-10.1 6.2-16 6.1-5.9 16.7-5.9 3.5 0 6.8 0.7 3.3 0.8 6.3 2.4v8.7q-3.1-2-6-3-3-0.9-6.2-0.9-5.9 0-9.2 3.7-3.3 3.7-3.3 10.3 0 6.5 3.3 10.3 3.3 3.7 9.2 3.7 3.2 0 6.2-0.9 2.9-1 6-3.1zm28.3-24q-5 0-7.7 3.6-2.8 3.7-2.8 10.4 0 6.7 2.8 10.3 2.7 3.7 7.7 3.7 5 0 7.8-3.7 2.7-3.6 2.7-10.3 0-6.7-2.7-10.4-2.8-3.6-7.8-3.6zm0-7.9q10.2 0 16 5.8 5.8 5.8 5.8 16.1 0 10.3-5.8 16.1-5.8 5.8-16 5.8-10.2 0-16-5.8-5.7-5.8-5.7-16.1 0-10.3 5.7-16.1 5.8-5.8 16-5.8zm49.3 7.9q-5 0-7.7 3.6-2.8 3.7-2.8 10.4 0 6.7 2.8 10.3 2.7 3.7 7.7 3.7 5 0 7.8-3.7 2.7-3.6 2.7-10.3 0-6.7-2.7-10.4-2.8-3.6-7.8-3.6zm0-7.9q10.2 0 16 5.8 5.8 5.8 5.8 16.1 0 10.3-5.8 16.1-5.8 5.8-16 5.8-10.2 0-16-5.8-5.7-5.8-5.7-16.1 0-10.3 5.7-16.1 5.8-5.8 16-5.8zm30 43v-42.3h18.1q8.1 0 12.4 3.6 4.3 3.6 4.3 10.2 0 6.7-4.3 10.3-4.3 3.5-12.4 3.5h-7.2v14.7zm16.9-34.4h-6v11.8h6q3.2 0 4.9-1.5 1.8-1.6 1.8-4.4 0-2.8-1.8-4.4-1.7-1.5-4.9-1.5zm25.6 34.4v-42.3h29.4v8.3h-18.5v7.8h17.4v8.3h-17.4v9.7h19.2v8.2zm50.5-23.5h4.6q3.4 0 4.9-1.3 1.5-1.3 1.5-4.2 0-2.9-1.5-4.1-1.5-1.3-4.9-1.3h-4.6zm3.1 7.6h-3.1v16h-10.9v-42.3h16.6q8.4 0 12.3 2.8 3.9 2.8 3.9 8.8 0 4.2-2.1 6.9-2 2.7-6.1 4 2.3 0.5 4 2.3 1.8 1.8 3.6 5.4l6 12.1h-11.7l-5.1-10.6q-1.6-3.1-3.2-4.3-1.6-1.1-4.2-1.1zm59 16l-2.7-7.7h-17l-2.7 7.7h-11l15.7-42.3h13l15.6 42.3zm-11.2-32.4l-5.8 16.8h11.6zm18.2-1.7v-8.2h39v8.2h-14v34.1h-10.9v-34.1zm44.6 34.1v-42.3h10.9v42.3zm32.2 0l-15.7-42.3h11l11.2 31.2 11.2-31.2h10.9l-15.6 42.3zm58.6 0l-2.6-7.7h-17.1l-2.7 7.7h-10.9l15.6-42.3h13l15.7 42.3zm-11.2-32.4l-5.8 16.8h11.6z"/>
	<g id="g61">
		<path id="path1" fill-rule="evenodd" class="s2" d="m202.4 117.8c5.6 15.3 15.6 28 28.1 38.4q0.1 0.1 0.2 0.1 0.1 0 0.2 0 0.1-0.1 0.2-0.2 0.1-0.1 0.1-0.2 0.5-20.2 4.1-38.7c3.5-18.6 13.4-44.8 33.1-52 20.3-7.4 37.3 10.1 44.8 26.6q7.4 16.4 9.9 35.5 0 0.2 0.1 0.3 0 0.1 0.1 0.2 0.1 0.1 0.2 0.1 0.2 0 0.3 0l2.8 0.1q0.6 0 0.6-0.7l0.1-78.5q0-0.1-0.1-0.2 0-0.1-0.1-0.2-0.1-0.1-0.2-0.1-0.1 0-0.2 0l-3-0.1q-0.1 0-0.3 0.1-0.2 0.1-0.3 0.2-0.2 0.2-0.2 0.4-0.1 0.1-0.1 0.3c0.5 6.2-3.1 19.3-11.9 14.4-8-4.5-17-10-25-12.6-42.9-13.5-72.6 29.5-83.4 64.5q-0.2 0.5-0.3 1.2 0 0.5 0.2 1.1z"/>
		<path id="path2" fill-rule="evenodd" class="s2" d="m307.8 247.4c-4.6-6.5-9.4-12.8-16.1-17.1-15.1-9.7-33.1-13.8-50.5-18.9-20.5-6-43.3-18.9-50.1-40.8-3.3-10.5-3-22.9-2-34.5q0 0-0.1-0.1 0-0.1-0.1-0.1-0.1 0-0.1 0-0.1 0.1-0.1 0.1c-11.5 28.1-5 60.7 19 80.1 18.1 14.6 36.8 18.4 62.3 23.9 13.1 2.9 25.8 7.5 34.6 18.1 6.1 7.3 10.1 15.8 13.8 24.3q0 0.1 0.1 0.1 0 0 0.1 0 0 0 0.1-0.1 0 0 0-0.1c1-32.4-7-61.6-33-82.5-22.2-17.8-48.8-30.3-68-51.3q-32.9-35.8-16.9-82.5 0-0.2 0-0.4-0.1-0.1-0.3-0.2-0.1-0.1-0.3 0-0.2 0.1-0.2 0.2c-30.3 54 4.3 106.2 50.9 133.5 22.1 12.9 46.6 23.5 57.2 48.1q0 0.1 0 0.1 0 0.1-0.1 0.1-0.1 0.1-0.1 0.1-0.1-0.1-0.1-0.1z"/>
		<path id="path3" fill-rule="evenodd" class="s2" d="m198.2 212q0-0.3-0.2-0.4-0.4-0.4-0.3 0.2c6 32.2 23.1 67.6 58.1 76.3 19.3 4.9 39.7-0.3 53-15.3q0.9-0.9 0-2.6-1.8-3.5-4.2-6.6-0.7-1-1.6-0.2c-27.7 23.7-56.4 4.8-63.3-25.9q-0.1-0.3-0.2-0.6-0.2-0.3-0.4-0.6-0.3-0.2-0.5-0.4-0.3-0.2-0.6-0.3-22.8-6.7-39.6-23.3-0.1-0.1-0.2-0.3z"/>
		<path id="path4" fill-rule="evenodd" class="s2" d="m321.5 256.6c2-3 3.5-5.2 3.5-9.1q0-7.3 0-14.4 0-0.1-0.1-0.2 0-0.1-0.1-0.1-0.1-0.1-0.2 0-0.1 0-0.2 0.1l-6.1 10.4q0 0.1 0 0.2-0.1 0-0.1 0.1 0 0.1 0 0.2 0 0.1 0 0.2l2.6 12.5q0.2 0.8 0.7 0.1z"/>
		<path id="path34" class="s3" d="m230.5 156.2c-12.5-10.3-22.4-23.1-28.1-38.4q-0.2-0.6-0.2-1.1 0.1-0.7 0.3-1.2c10.8-35 40.5-78 83.4-64.5 8 2.6 17 8.1 25 12.6 8.8 4.9 12.4-8.2 11.9-14.4q0-0.2 0.1-0.3 0-0.2 0.2-0.4 0.1-0.1 0.3-0.2 0.2-0.1 0.3 0h3q0.1 0 0.2 0 0.1 0 0.2 0.1 0.1 0.1 0.1 0.2 0.1 0.1 0.1 0.2l-0.1 78.6q0 0.6-0.6 0.6h-2.8q-0.1-0.1-0.3-0.1-0.1 0-0.2-0.1-0.1-0.1-0.1-0.2-0.1-0.1-0.1-0.3-2.5-19.1-9.9-35.5c-7.5-16.5-24.5-34-44.8-26.6-19.7 7.2-29.6 33.4-33.1 52q-3.6 18.5-4.1 38.7 0 0.1-0.1 0.2-0.1 0.1-0.2 0.2-0.1 0-0.2 0-0.1 0-0.2-0.1z"/>
		<path id="path35" class="s3" d="m308.1 247.2c-10.6-24.6-35.1-35.2-57.2-48.1-46.6-27.3-81.3-79.5-50.9-133.5q0-0.1 0.2-0.2 0.2-0.1 0.3 0 0.2 0.1 0.3 0.2 0 0.2-0.1 0.4-15.9 46.7 17 82.5c19.2 21 45.8 33.5 68 51.3 26 20.9 34.1 50.1 33 82.5q0 0.1 0 0.1-0.1 0.1-0.1 0.1-0.1 0-0.1 0-0.1 0-0.1-0.1c-3.7-8.5-7.7-16.9-13.8-24.3-8.8-10.6-21.5-15.2-34.6-18.1-25.5-5.5-44.1-9.3-62.3-23.9-24-19.4-30.5-52-19-80.1q0 0 0.1-0.1 0 0 0.1 0 0.1 0 0.1 0.1 0.1 0.1 0.1 0.1c-1 11.6-1.3 24 2 34.5 6.8 21.9 29.6 34.8 50.1 40.8 17.4 5.1 35.4 9.2 50.5 18.9 6.7 4.3 11.5 10.7 16.1 17.1q0 0 0.1 0.1 0 0 0.1-0.1 0.1 0 0.1-0.1z"/>
		<path id="path36" class="s3" d="m198.4 212.3q16.8 16.6 39.6 23.3 0.3 0.1 0.6 0.3 0.2 0.2 0.5 0.4 0.2 0.3 0.4 0.6 0.1 0.3 0.2 0.6c6.9 30.7 35.6 49.6 63.3 25.9q0.9-0.8 1.6 0.2 2.4 3.1 4.2 6.6 0.8 1.7 0 2.6c-13.3 15-33.7 20.2-53 15.3-35-8.7-52.1-44.1-58.1-76.4q-0.1-0.5 0.3-0.1 0.2 0.1 0.2 0.4 0.1 0.2 0.2 0.3z"/>
		<path id="path37" class="s3" d="m321.5 256.6q-0.5 0.7-0.7-0.1l-2.6-12.5q0-0.1 0-0.2 0-0.1 0-0.2 0-0.1 0.1-0.1 0-0.1 0-0.2l6.1-10.4q0.1-0.1 0.2-0.1 0.1-0.1 0.2 0 0.1 0 0.1 0.1 0.1 0.1 0.1 0.2 0 7.1 0 14.4c0 3.9-1.5 6.1-3.5 9.1z"/>
	</g>
</svg>